<?xml version="1.0" encoding="UTF-8" standalone="no"?>
<svg
   xmlns:dc="http://purl.org/dc/elements/1.1/"
   xmlns:cc="http://creativecommons.org/ns#"
   xmlns:rdf="http://www.w3.org/1999/02/22-rdf-syntax-ns#"
   xmlns:svg="http://www.w3.org/2000/svg"
   xmlns="http://www.w3.org/2000/svg"
   xmlns:sodipodi="http://sodipodi.sourceforge.net/DTD/sodipodi-0.dtd"
   xmlns:inkscape="http://www.inkscape.org/namespaces/inkscape"
   viewBox="0 0 286 200"
   fill="none"
   version="1.1"
   id="svg171"
   sodipodi:docname="welcome_import.svg"
   inkscape:version="0.92.5 (2060ec1f9f, 2020-04-08)">
  <metadata
     id="metadata175">
    <rdf:RDF>
      <cc:Work
         rdf:about="">
        <dc:format>image/svg+xml</dc:format>
        <dc:type
           rdf:resource="http://purl.org/dc/dcmitype/StillImage" />
      </cc:Work>
    </rdf:RDF>
  </metadata>
  <sodipodi:namedview
     pagecolor="#ffffff"
     bordercolor="#666666"
     borderopacity="1"
     objecttolerance="10"
     gridtolerance="10"
     guidetolerance="10"
     inkscape:pageopacity="0"
     inkscape:pageshadow="2"
     inkscape:window-width="2560"
     inkscape:window-height="1043"
     id="namedview173"
     showgrid="false"
     inkscape:zoom="1.18"
     inkscape:cx="143"
     inkscape:cy="100"
     inkscape:window-x="1920"
     inkscape:window-y="0"
     inkscape:window-maximized="1"
     inkscape:current-layer="svg171" />
  <path
     inkscape:connector-curvature="0"
     style="fill:url(#paint0_linear)"
     id="path2"
     d="m 220.021,79.973 c 4.43,0 8.021,-3.352 8.021,-7.486 0,-4.135 -3.591,-7.487 -8.021,-7.487 -4.43,0 -8.021,3.352 -8.021,7.487 0,4.134 3.591,7.486 8.021,7.486 z" />
  <path
     inkscape:connector-curvature="0"
     style="fill:url(#paint1_linear)"
     id="path4"
     d="m 62,81 c 6.627,0 12,-4.925 12,-11 0,-6.075 -5.373,-11 -12,-11 -6.627,0 -12,4.925 -12,11 0,6.075 5.373,11 12,11 z" />
  <path
     style="fill:#ffffff;filter:url(#filter0_d)"
     inkscape:connector-curvature="0"
     id="path6"
     d="m 65.839,17.552 a 3.96,3.96 0 0 1 3.963,-3.968 h 146.907 a 3.962,3.962 0 0 1 3.964,3.968 v 158.413 a 3.96,3.96 0 0 1 -3.964,3.968 H 69.802 a 3.96,3.96 0 0 1 -3.963,-3.968 z" />
  <path
     style="stroke:#f2eef9;stroke-width:2"
     inkscape:connector-curvature="0"
     id="path8"
     d="m 85,42 h -4 a 2,2 0 0 0 -2,2 v 4 a 2,2 0 0 0 2,2 h 4 a 2,2 0 0 0 2,-2 v -4 a 2,2 0 0 0 -2,-2 z" />
  <path
     style="fill:#f2eef9;stroke:#f2eef9;stroke-width:2"
     inkscape:connector-curvature="0"
     id="path10"
     d="M 165,44 H 95 a 2,2 0 1 0 0,4 h 70 a 2,2 0 1 0 0,-4 z m 30,23 H 94 a 1,1 0 1 0 0,2 h 101 a 1,1 0 0 0 0,-2 z" />
  <path
     style="stroke:#f2eef9;stroke-width:2"
     inkscape:connector-curvature="0"
     id="path12"
     d="m 85,65 h -4 a 2,2 0 0 0 -2,2 v 4 a 2,2 0 0 0 2,2 h 4 a 2,2 0 0 0 2,-2 v -4 a 2,2 0 0 0 -2,-2 z" />
  <path
     style="stroke:#6431b1;stroke-width:2;stroke-linecap:round;stroke-linejoin:round"
     inkscape:connector-curvature="0"
     id="path14"
     d="m 81,67.84 2.49,1.903 4.634,-7.757" />
  <path
     style="stroke:#f2eef9;stroke-width:2"
     inkscape:connector-curvature="0"
     id="path16"
     d="m 85,107 h -4 a 2,2 0 0 0 -2,2 v 4 a 2,2 0 0 0 2,2 h 4 a 2,2 0 0 0 2,-2 v -4 a 2,2 0 0 0 -2,-2 z" />
  <path
     style="fill:#f2eef9;stroke:#f2eef9;stroke-width:2"
     inkscape:connector-curvature="0"
     id="path18"
     d="M 195,110 H 94 a 1,1 0 0 0 0,2 h 101 a 1,1 0 0 0 0,-2 z" />
  <path
     style="stroke:#f2eef9;stroke-width:2"
     inkscape:connector-curvature="0"
     id="path20"
     d="m 85,150 h -4 a 2,2 0 0 0 -2,2 v 4 a 2,2 0 0 0 2,2 h 4 a 2,2 0 0 0 2,-2 v -4 a 2,2 0 0 0 -2,-2 z" />
  <path
     style="fill:#f2eef9;stroke:#f2eef9;stroke-width:2"
     inkscape:connector-curvature="0"
     id="path22"
     d="M 194,150 H 95 a 2,2 0 0 0 -2,2 v 4 a 2,2 0 0 0 2,2 h 99 a 2,2 0 0 0 2,-2 v -4 a 2,2 0 0 0 -2,-2 z" />
  <path
     style="stroke:#f2eef9;stroke-width:2"
     inkscape:connector-curvature="0"
     id="path24"
     d="m 85,85 h -4 a 2,2 0 0 0 -2,2 v 4 a 2,2 0 0 0 2,2 h 4 a 2,2 0 0 0 2,-2 v -4 a 2,2 0 0 0 -2,-2 z" />
  <path
     style="stroke:#6431b1;stroke-width:2;stroke-linecap:round;stroke-linejoin:round"
     inkscape:connector-curvature="0"
     id="path26"
     d="M 81,87.855 83.49,89.757 88.124,82" />
  <path
     style="fill:#f2eef9;stroke:#f2eef9;stroke-width:2"
     inkscape:connector-curvature="0"
     id="path28"
     d="M 158,87 H 95 a 2,2 0 1 0 0,4 h 63 a 2,2 0 1 0 0,-4 z" />
  <path
     style="stroke:#f2eef9;stroke-width:2"
     inkscape:connector-curvature="0"
     id="path30"
     d="m 85,128 h -4 a 2,2 0 0 0 -2,2 v 4 a 2,2 0 0 0 2,2 h 4 a 2,2 0 0 0 2,-2 v -4 a 2,2 0 0 0 -2,-2 z" />
  <path
     style="stroke:#6431b1;stroke-width:2;stroke-linecap:round;stroke-linejoin:round"
     inkscape:connector-curvature="0"
     id="path32"
     d="m 81,130.841 2.49,1.901 4.634,-7.756" />
  <path
     style="fill:#f2eef9;stroke:#f2eef9;stroke-width:2"
     inkscape:connector-curvature="0"
     id="path34"
     d="M 158,130 H 95 a 2,2 0 1 0 0,4 h 63 a 2,2 0 1 0 0,-4 z" />
  <path
     inkscape:connector-curvature="0"
     style="clip-rule:evenodd;fill:url(#paint2_linear);fill-rule:evenodd"
     id="path36"
     d="M 65.839,12.791 H 220.673 V 27.854 H 65.839 V 12.79 Z" />
  <path
     style="fill:#ffffff"
     inkscape:connector-curvature="0"
     id="path38"
     d="m 74.573,22.304 a 2.38,2.38 0 0 0 2.382,-2.378 2.38,2.38 0 0 0 -2.382,-2.378 2.38,2.38 0 0 0 -2.382,2.378 2.38,2.38 0 0 0 2.382,2.378 z m 7.94,0 a 2.38,2.38 0 0 0 2.382,-2.378 2.38,2.38 0 0 0 -2.382,-2.378 2.38,2.38 0 0 0 -2.382,2.378 2.38,2.38 0 0 0 2.382,2.378 z m 7.94,0 a 2.38,2.38 0 0 0 2.382,-2.378 2.38,2.38 0 0 0 -2.382,-2.378 2.38,2.38 0 0 0 -2.382,2.378 2.38,2.38 0 0 0 2.382,2.378 z" />
  <path
     inkscape:connector-curvature="0"
     style="fill:url(#paint3_linear)"
     id="path40"
     d="M 88.78,118 H 58.96 A 3.96,3.96 0 0 0 55,121.961 v 23.789 a 3.96,3.96 0 0 0 3.96,3.96 h 29.82 a 3.96,3.96 0 0 0 3.96,-3.96 V 121.961 A 3.96,3.96 0 0 0 88.78,118 Z" />
  <path
     style="fill:#ffffff"
     inkscape:connector-curvature="0"
     id="path42"
     d="m 73.778,123.549 a 0.837,0.837 0 0 0 -0.174,0.025 0.8,0.8 0 0 0 -0.57,0.446 l -2.581,5.252 -5.856,0.867 a 0.79,0.79 0 0 0 -0.614,0.542 0.786,0.786 0 0 0 0.192,0.796 l 4.193,4.112 -0.968,5.797 a 0.8,0.8 0 0 0 0.31,0.775 0.8,0.8 0 0 0 0.832,0.068 l 5.21,-2.75 5.212,2.75 a 0.8,0.8 0 0 0 0.83,-0.068 0.8,0.8 0 0 0 0.31,-0.775 l -0.967,-5.797 4.194,-4.112 a 0.786,0.786 0 0 0 0.192,-0.796 0.79,0.79 0 0 0 -0.614,-0.542 l -5.856,-0.867 -2.58,-5.252 a 0.797,0.797 0 0 0 -0.695,-0.471 z m -0.025,2.626 2.084,4.187 a 0.79,0.79 0 0 0 0.596,0.421 l 4.64,0.694 -3.35,3.27 a 0.79,0.79 0 0 0 -0.248,0.694 l 0.794,4.632 -4.144,-2.18 a 0.791,0.791 0 0 0 -0.745,0 l -4.143,2.18 0.794,-4.632 a 0.79,0.79 0 0 0 -0.248,-0.694 l -3.35,-3.27 4.64,-0.694 a 0.79,0.79 0 0 0 0.595,-0.421 z" />
  <path
     inkscape:connector-curvature="0"
     style="fill:url(#paint4_linear);filter:url(#filter1_d)"
     id="path44"
     d="M 178.48,2 H 148.154 A 3.154,3.154 0 0 0 145,5.154 v 26.344 a 3.154,3.154 0 0 0 3.154,3.154 h 30.326 a 3.154,3.154 0 0 0 3.154,-3.154 V 5.154 A 3.154,3.154 0 0 0 178.48,2 Z" />
  <path
     style="fill:#ffffff"
     inkscape:connector-curvature="0"
     id="path46"
     d="m 161.976,9.168 c -1.11,0 -2.011,0.93 -2.011,2.079 v 5.544 h -2.178 c -0.946,0 -1.145,0.157 -0.336,0.997 l 4.42,4.57 c 1.475,1.524 1.456,1.53 2.933,0 l 4.399,-4.57 c 0.809,-0.84 0.539,-0.997 -0.314,-0.997 h -2.221 v -5.544 c 0,-1.148 -0.9,-2.08 -2.011,-2.08 h -2.681 z m -7.419,12.742 v 2.73 c 0,1.131 0.905,2.048 2.021,2.048 h 13.478 c 1.116,0 2.022,-0.917 2.022,-2.047 V 21.91 h -1.348 v 2.73 a 0.68,0.68 0 0 1 -0.674,0.683 h -13.478 a 0.679,0.679 0 0 1 -0.673,-0.683 v -2.73 z" />
  <path
     inkscape:connector-curvature="0"
     style="fill:url(#paint5_linear)"
     id="path48"
     d="M 232.44,89 H 198.56 A 2.56,2.56 0 0 0 196,91.56 v 22.034 a 2.56,2.56 0 0 0 2.56,2.56 h 33.88 a 2.56,2.56 0 0 0 2.56,-2.56 V 91.56 A 2.56,2.56 0 0 0 232.44,89 Z" />
  <path
     style="clip-rule:evenodd;fill:#ffffff;fill-rule:evenodd"
     inkscape:connector-curvature="0"
     id="path50"
     d="m 215.236,108.039 c -3.12,-2.084 -5.943,-5.357 -6.019,-5.506 -0.072,-0.075 -0.148,-0.299 -0.148,-0.447 0,-0.148 0.076,-0.372 0.148,-0.52 0.076,-0.149 2.972,-3.425 6.019,-5.508 0.223,-0.149 0.519,-0.149 0.815,-0.073 0.224,0.148 0.447,0.372 0.447,0.668 v 2.753 c 0,0 6.462,0.372 6.761,0.596 0.372,0.372 0.668,1.264 0.668,2.084 0,0.819 -0.296,1.636 -0.668,1.936 -0.299,0.148 -6.761,0.668 -6.761,0.668 v 2.753 c 0,0.299 -0.148,0.52 -0.447,0.671 -0.22,0.148 -0.519,0.073 -0.815,-0.075 z" />
  <path
     style="fill:#ffffff;filter:url(#filter2_d)"
     inkscape:connector-curvature="0"
     id="path52"
     d="m 133,159.97 a 2.97,2.97 0 0 1 2.97,-2.97 h 31.714 c 1.64,0 2.97,1.327 2.97,2.97 v 26.876 a 2.97,2.97 0 0 1 -2.97,2.97 H 135.97 a 2.968,2.968 0 0 1 -2.97,-2.97 z" />
  <path
     inkscape:connector-curvature="0"
     style="fill:url(#paint6_linear)"
     id="path54"
     d="m 155.934,165.676 a 0.404,0.404 0 0 0 -0.438,0.415 v 1.837 c 0,0 -11.961,0.284 -12.114,0.393 -0.224,0.158 -0.372,0.27 -0.372,0.699 0,0.429 0.148,0.563 0.372,0.722 0.153,0.109 12.114,0.306 12.114,0.306 v 1.88 a 0.41,0.41 0 0 0 0.219,0.371 0.424,0.424 0 0 0 0.437,-0.022 c 1.692,-1.142 4.707,-2.918 4.767,-2.994 a 0.426,0.426 0 0 0 0.11,-0.263 0.43,0.43 0 0 0 -0.11,-0.262 c -0.06,-0.076 -3.075,-1.874 -4.767,-3.016 a 0.416,0.416 0 0 0 -0.218,-0.066 z m -7.829,8.676 a 0.414,0.414 0 0 0 -0.218,0.065 c -1.692,1.142 -4.707,2.918 -4.767,2.994 a 0.426,0.426 0 0 0 -0.11,0.263 0.43,0.43 0 0 0 0.11,0.262 c 0.06,0.076 3.075,1.874 4.767,3.016 a 0.42,0.42 0 0 0 0.656,-0.35 v -1.836 c 0,0 11.961,-0.284 12.114,-0.393 0.224,-0.158 0.372,-0.27 0.372,-0.699 0,-0.429 -0.148,-0.563 -0.372,-0.721 -0.153,-0.11 -12.114,-0.306 -12.114,-0.306 v -1.88 a 0.404,0.404 0 0 0 -0.438,-0.415 z" />
  <path
     inkscape:connector-curvature="0"
     style="fill:url(#paint7_linear)"
     id="path56"
     d="m 212,147.837 c 0,-1.567 1.745,-2.837 3.883,-2.837 h 14.234 c 2.145,0 3.883,1.27 3.883,2.837 v 7.326 c 0,1.567 -1.745,2.837 -3.883,2.837 H 215.883 C 213.738,158 212,156.73 212,155.163 Z" />
  <path
     style="fill:#ffffff;filter:url(#filter3_d)"
     inkscape:connector-curvature="0"
     id="path58"
     d="M 196,40.966 A 3.965,3.965 0 0 1 199.966,37 h 5.972 a 3.965,3.965 0 0 1 3.965,3.966 v 5.972 a 3.965,3.965 0 0 1 -3.965,3.966 h -5.972 A 3.965,3.965 0 0 1 196,46.938 Z" />
  <defs
     id="defs169">
    <filter
       id="filter0_d"
       x="57.839"
       y="9.584"
       width="170.834"
       height="182.349"
       filterUnits="userSpaceOnUse"
       color-interpolation-filters="sRGB">
      <feFlood
         flood-opacity="0"
         result="BackgroundImageFix"
         id="feFlood62" />
      <feColorMatrix
         in="SourceAlpha"
         values="0 0 0 0 0 0 0 0 0 0 0 0 0 0 0 0 0 0 127 0"
         id="feColorMatrix64" />
      <feOffset
         dy="4"
         id="feOffset66" />
      <feGaussianBlur
         stdDeviation="4"
         id="feGaussianBlur68" />
      <feColorMatrix
         values="0 0 0 0 0 0 0 0 0 0 0 0 0 0 0 0 0 0 0.1 0"
         id="feColorMatrix70" />
      <feBlend
         in2="BackgroundImageFix"
         result="effect1_dropShadow"
         id="feBlend72" />
      <feBlend
         in="SourceGraphic"
         in2="effect1_dropShadow"
         result="shape"
         id="feBlend74" />
    </filter>
    <filter
       id="filter1_d"
       x="137"
       y="-2"
       width="52.634"
       height="48.652"
       filterUnits="userSpaceOnUse"
       color-interpolation-filters="sRGB">
      <feFlood
         flood-opacity="0"
         result="BackgroundImageFix"
         id="feFlood77" />
      <feColorMatrix
         in="SourceAlpha"
         values="0 0 0 0 0 0 0 0 0 0 0 0 0 0 0 0 0 0 127 0"
         id="feColorMatrix79" />
      <feOffset
         dy="4"
         id="feOffset81" />
      <feGaussianBlur
         stdDeviation="4"
         id="feGaussianBlur83" />
      <feColorMatrix
         values="0 0 0 0 0 0 0 0 0 0 0 0 0 0 0 0 0 0 0.2 0"
         id="feColorMatrix85" />
      <feBlend
         in2="BackgroundImageFix"
         result="effect1_dropShadow"
         id="feBlend87" />
      <feBlend
         in="SourceGraphic"
         in2="effect1_dropShadow"
         result="shape"
         id="feBlend89" />
    </filter>
    <filter
       id="filter2_d"
       x="125"
       y="153"
       width="53.654"
       height="48.816"
       filterUnits="userSpaceOnUse"
       color-interpolation-filters="sRGB">
      <feFlood
         flood-opacity="0"
         result="BackgroundImageFix"
         id="feFlood92" />
      <feColorMatrix
         in="SourceAlpha"
         values="0 0 0 0 0 0 0 0 0 0 0 0 0 0 0 0 0 0 127 0"
         id="feColorMatrix94" />
      <feOffset
         dy="4"
         id="feOffset96" />
      <feGaussianBlur
         stdDeviation="4"
         id="feGaussianBlur98" />
      <feColorMatrix
         values="0 0 0 0 0 0 0 0 0 0 0 0 0 0 0 0 0 0 0.2 0"
         id="feColorMatrix100" />
      <feBlend
         in2="BackgroundImageFix"
         result="effect1_dropShadow"
         id="feBlend102" />
      <feBlend
         in="SourceGraphic"
         in2="effect1_dropShadow"
         result="shape"
         id="feBlend104" />
    </filter>
    <filter
       id="filter3_d"
       x="188"
       y="33"
       width="29.904"
       height="29.904"
       filterUnits="userSpaceOnUse"
       color-interpolation-filters="sRGB">
      <feFlood
         flood-opacity="0"
         result="BackgroundImageFix"
         id="feFlood107" />
      <feColorMatrix
         in="SourceAlpha"
         values="0 0 0 0 0 0 0 0 0 0 0 0 0 0 0 0 0 0 127 0"
         id="feColorMatrix109" />
      <feOffset
         dy="4"
         id="feOffset111" />
      <feGaussianBlur
         stdDeviation="4"
         id="feGaussianBlur113" />
      <feColorMatrix
         values="0 0 0 0 0 0 0 0 0 0 0 0 0 0 0 0 0 0 0.2 0"
         id="feColorMatrix115" />
      <feBlend
         in2="BackgroundImageFix"
         result="effect1_dropShadow"
         id="feBlend117" />
      <feBlend
         in="SourceGraphic"
         in2="effect1_dropShadow"
         result="shape"
         id="feBlend119" />
    </filter>
    <linearGradient
       id="paint0_linear"
       x1="212.916"
       y1="65.544"
       x2="226.73"
       y2="81.018"
       gradientUnits="userSpaceOnUse">
      <stop
         stop-color="#F0F0F0"
         id="stop122" />
      <stop
         offset="1"
         stop-color="#F2EDFD"
         id="stop124" />
    </linearGradient>
    <linearGradient
       id="paint1_linear"
       x1="58.446"
       y1="64.668"
       x2="82.862"
       y2="90.573"
       gradientUnits="userSpaceOnUse">
      <stop
         stop-color="#392DD1"
         id="stop127"
         style="stop-color:#3e40e6;stop-opacity:1" />
      <stop
         offset="1"
         stop-color="#FF4343"
         id="stop129"
         style="stop-color:#3e40e6;stop-opacity:1" />
    </linearGradient>
    <linearGradient
       id="paint2_linear"
       x1="120.328"
       y1="20.251"
       x2="343.77609"
       y2="21.258066"
       gradientUnits="userSpaceOnUse">
      <stop
         stop-color="#392DD1"
         id="stop132"
         style="stop-color:#01b19e;stop-opacity:1" />
      <stop
         offset="1"
         stop-color="#FF4343"
         id="stop134"
         style="stop-color:#297194;stop-opacity:1" />
    </linearGradient>
    <linearGradient
       id="paint3_linear"
       x1="55"
       y1="134.079"
       x2="92.74"
       y2="134.079"
       gradientUnits="userSpaceOnUse">
      <stop
         stop-color="#F50"
         id="stop137"
         style="stop-color:#3e40e6;stop-opacity:1" />
      <stop
         offset=".572"
         stop-color="#FF2000"
         id="stop139"
         style="stop-color:#3e40e6;stop-opacity:1" />
      <stop
         offset="1"
         stop-color="#FF2000"
         id="stop141"
         style="stop-color:#3e40e6;stop-opacity:1" />
    </linearGradient>
    <linearGradient
       id="paint4_linear"
       x1="145"
       y1="18.557"
       x2="181.634"
       y2="18.557"
       gradientUnits="userSpaceOnUse">
      <stop
         stop-color="#F50"
         id="stop144"
         style="stop-color:#3e40e6;stop-opacity:1" />
      <stop
         offset=".572"
         stop-color="#FF2000"
         id="stop146"
         style="stop-color:#3e40e6;stop-opacity:1" />
      <stop
         offset="1"
         stop-color="#FF2000"
         id="stop148"
         style="stop-color:#3e40e6;stop-opacity:1" />
    </linearGradient>
    <linearGradient
       id="paint5_linear"
       x1="209.725"
       y1="95.995"
       x2="238.303"
       y2="135.915"
       gradientUnits="userSpaceOnUse">
      <stop
         stop-color="#392DD1"
         id="stop151"
         style="stop-color:#3e40e6;stop-opacity:1" />
      <stop
         offset="1"
         stop-color="#FF4343"
         id="stop153"
         style="stop-color:#3e40e6;stop-opacity:1" />
    </linearGradient>
    <linearGradient
       id="paint6_linear"
       x1="143.01"
       y1="173.459"
       x2="161.029"
       y2="173.459"
       gradientUnits="userSpaceOnUse">
      <stop
         stop-color="#462FC9"
         id="stop156" />
    </linearGradient>
    <linearGradient
       id="paint7_linear"
       x1="212"
       y1="151.592"
       x2="234"
       y2="151.592"
       gradientUnits="userSpaceOnUse">
      <stop
         stop-color="#F50"
         id="stop159"
         style="stop-color:#3e40e6;stop-opacity:1" />
      <stop
         offset=".572"
         stop-color="#FF2000"
         id="stop161"
         style="stop-color:#3e40e6;stop-opacity:1" />
      <stop
         offset="1"
         stop-color="#FF2000"
         id="stop163"
         style="stop-color:#3e40e6;stop-opacity:1" />
    </linearGradient>
    <clipPath
       id="clip0">
      <path
         fill="#fff"
         d="M0 0h286v200H0z"
         id="path166" />
    </clipPath>
  </defs>
</svg>
