/* XPM */
static char * product_logo_32_xpm[] = {
"32 32 315 2",
"  	c None",
". 	c #1F2862",
"+ 	c #1F2763",
"@ 	c #202763",
"# 	c #212664",
"$ 	c #222664",
"% 	c #222565",
"& 	c #232565",
"* 	c #242466",
"= 	c #252367",
"- 	c #1E2862",
"; 	c #262367",
"> 	c #262268",
", 	c #272268",
"' 	c #1D2961",
") 	c #282169",
"! 	c #292169",
"~ 	c #29206A",
"{ 	c #2A206B",
"] 	c #2B1F6B",
"^ 	c #2B1F6C",
"/ 	c #2C1E6C",
"( 	c #2D1F6C",
"_ 	c #2E1F6C",
": 	c #2A206A",
"< 	c #2E206C",
"[ 	c #2F206C",
"} 	c #30206C",
"| 	c #645160",
"1 	c #A67A55",
"2 	c #B77C4F",
"3 	c #B5704E",
"4 	c #A05B54",
"5 	c #5F3661",
"6 	c #274B72",
"7 	c #1D7B83",
"8 	c #188989",
"9 	c #198989",
"0 	c #1F7A83",
"a 	c #2A4A74",
"b 	c #31216C",
"c 	c #413D62",
"d 	c #C3A350",
"e 	c #EEBC40",
"f 	c #EBAC3D",
"g 	c #E89C3B",
"h 	c #E48C38",
"i 	c #E17C36",
"j 	c #DA6A36",
"k 	c #A74B4F",
"l 	c #3C2667",
"m 	c #2A356C",
"n 	c #279281",
"o 	c #16B092",
"p 	c #07AE97",
"q 	c #00AD99",
"r 	c #01AD99",
"s 	c #06AE97",
"t 	c #208E86",
"u 	c #2F346E",
"v 	c #32226C",
"w 	c #403962",
"x 	c #DAB249",
"y 	c #F0C240",
"z 	c #EDB73F",
"A 	c #EAA83D",
"B 	c #E7993A",
"C 	c #E48938",
"D 	c #DF7A36",
"E 	c #D3673A",
"F 	c #C65640",
"G 	c #A9434E",
"H 	c #3F2468",
"I 	c #2D3D6C",
"J 	c #3FA87E",
"K 	c #34B687",
"L 	c #25B38C",
"M 	c #15B192",
"N 	c #04AE98",
"O 	c #12B093",
"P 	c #1FB28F",
"Q 	c #29B48B",
"R 	c #32A583",
"S 	c #32356D",
"T 	c #33226C",
"U 	c #33236C",
"V 	c #BE8F4E",
"W 	c #EDB53F",
"X 	c #EDB33E",
"Y 	c #EBAB3D",
"Z 	c #E8A03B",
"` 	c #E69239",
" .	c #E28437",
"..	c #D8733A",
"+.	c #CB6140",
"@.	c #BE5245",
"#.	c #B2454C",
"$.	c #94485B",
"%.	c #4A9F7D",
"&.	c #41A488",
"*.	c #34998F",
"=.	c #2A9493",
"-.	c #229D93",
";.	c #16AD93",
">.	c #19B191",
",.	c #37B786",
"'.	c #42B982",
").	c #4CBB7F",
"!.	c #499877",
"~.	c #34236C",
"{.	c #60455F",
"].	c #E8A13C",
"^.	c #EAA53C",
"/.	c #E9A43C",
"(.	c #E89E3B",
"_.	c #E6943A",
":.	c #DC7A39",
"<.	c #D0693E",
"[.	c #C35A44",
"}.	c #B74D4A",
"|.	c #A75354",
"1.	c #6CA876",
"2.	c #4AAC83",
"3.	c #3BA18A",
"4.	c #2F9790",
"5.	c #268D96",
"6.	c #228499",
"7.	c #268198",
"8.	c #2CA68F",
"9.	c #3FB884",
"0.	c #4EBB7E",
"a.	c #5BBD7A",
"b.	c #65BF76",
"c.	c #6CC074",
"d.	c #41526D",
"e.	c #35246C",
"f.	c #A26654",
"g.	c #E59239",
"h.	c #E6953A",
"i.	c #E69439",
"j.	c #E58F39",
"k.	c #CE7D44",
"l.	c #75475F",
"m.	c #703F60",
"n.	c #B3574C",
"o.	c #BA5249",
"p.	c #AC5752",
"q.	c #7AB16F",
"r.	c #49B282",
"s.	c #39A889",
"t.	c #2C9D90",
"u.	c #229395",
"v.	c #217D91",
"w.	c #2D4678",
"x.	c #2F4578",
"y.	c #4DA87B",
"z.	c #73C271",
"A.	c #7FC46D",
"B.	c #87C56A",
"C.	c #688C6B",
"D.	c #36246C",
"E.	c #B2664D",
"F.	c #E28337",
"G.	c #E38537",
"H.	c #E28036",
"I.	c #74445F",
"J.	c #3E2668",
"K.	c #9E5656",
"L.	c #89B469",
"M.	c #6EC174",
"N.	c #48B881",
"O.	c #38AE88",
"P.	c #29A38F",
"Q.	c #228B8E",
"R.	c #2E306F",
"S.	c #44636E",
"T.	c #7AC36F",
"U.	c #8BC669",
"V.	c #98C865",
"W.	c #A2CA61",
"X.	c #86A165",
"Y.	c #37256C",
"Z.	c #B05A4D",
"`.	c #DF7334",
" +	c #DF7535",
".+	c #DF7435",
"++	c #DD7035",
"@+	c #703B60",
"#+	c #383B6A",
"$+	c #84B468",
"%+	c #81C46D",
"&+	c #48BA81",
"*+	c #36B487",
"=+	c #2AA390",
"-+	c #33798C",
";+	c #312F6E",
">+	c #4D656C",
",+	c #8EC768",
"'+	c #A0CA61",
")+	c #B0CD5C",
"!+	c #BBCF58",
"~+	c #9BA460",
"{+	c #9B4853",
"]+	c #DB6332",
"^+	c #DC6532",
"/+	c #DB6432",
"(+	c #D46037",
"_+	c #B75148",
":+	c #632F63",
"<+	c #5F3C65",
"[+	c #95B462",
"}+	c #93C766",
"|+	c #35AD8A",
"1+	c #2E8396",
"2+	c #378F90",
"3+	c #419083",
"4+	c #3D5D70",
"5+	c #49646D",
"6+	c #80B369",
"7+	c #A0CA62",
"8+	c #B5CD5A",
"9+	c #C7D154",
"0+	c #D5D350",
"a+	c #9D965F",
"b+	c #38266C",
"c+	c #5C2E61",
"d+	c #D75330",
"e+	c #D85430",
"f+	c #D35334",
"g+	c #C84F3C",
"h+	c #BD4A44",
"i+	c #B4554C",
"j+	c #B5B558",
"k+	c #A6CB60",
"l+	c #45B085",
"m+	c #2B8097",
"n+	c #2C8995",
"o+	c #399A8D",
"p+	c #4BAC83",
"q+	c #63BD78",
"r+	c #7DC46E",
"s+	c #96C865",
"t+	c #AFCC5D",
"u+	c #C6D155",
"v+	c #DBD44D",
"w+	c #EBD748",
"x+	c #6A5B68",
"y+	c #39266C",
"z+	c #B56E4C",
"A+	c #DB7E36",
"B+	c #D1743B",
"C+	c #CD7F42",
"D+	c #CCA34A",
"E+	c #C9CA52",
"F+	c #B9CE59",
"G+	c #56AD77",
"H+	c #2F7590",
"I+	c #238499",
"J+	c #3AA68A",
"K+	c #50B77F",
"L+	c #6AC075",
"M+	c #85C56B",
"N+	c #9FCA62",
"O+	c #BACE59",
"P+	c #D3D350",
"Q+	c #C7AF55",
"R+	c #463D67",
"S+	c #DFC54C",
"T+	c #F5D944",
"U+	c #F1D846",
"V+	c #DFD54C",
"W+	c #CCD253",
"X+	c #66AF72",
"Y+	c #353D6D",
"Z+	c #2F2F70",
"`+	c #218191",
" @	c #279F91",
".@	c #39B087",
"+@	c #53BC7D",
"@@	c #6EC173",
"#@	c #89C66A",
"$@	c #A4CB61",
"%@	c #BFCF57",
"&@	c #DAD44E",
"*@	c #DAC44F",
"=@	c #4F3E6A",
"-@	c #3A266C",
";@	c #3A276D",
">@	c #473D68",
",@	c #C7B054",
"'@	c #F0D846",
")@	c #6C9F6C",
"!@	c #35376C",
"~@	c #302F6F",
"{@	c #2A8884",
"]@	c #38B686",
"^@	c #BECF57",
"/@	c #B0AB5B",
"(@	c #4D3D6A",
"_@	c #3A276C",
":@	c #685B67",
"<@	c #9F975F",
"[@	c #A3A65E",
"}@	c #94A361",
"|@	c #799066",
"1@	c #49556B",
"2@	c #354E70",
"3@	c #448574",
"4@	c #5A9871",
"5@	c #6D9C6B",
"6@	c #758F68",
"7@	c #57576A",
"8@	c #38256C",
"9@	c #3B276D",
"0@	c #3C286D",
"                                                                ",
"                      . + @ # $ % & * * =                       ",
"                  - . + @ # # % & * * = ; > ,                   ",
"              ' - . + @ # # % & * * = ; > , ) ! ~               ",
"            ' - . + @ # # % & * * = ; > , ) ! ~ { ]             ",
"          ' - . + @ # $ % & * * = ; > , ) ! ~ { ] ^ /           ",
"        ' - . + @ # # % & * * = ; > , ) ! ~ { ] ^ / ( _         ",
"      ' - . + @ # # % & * * = ; > , ) ! ~ : ] ^ / ( _ < [       ",
"      - . + @ # # % & * * = ; > , ) ! ~ { ] ^ / ( _ < [ }       ",
"    - . + @ # | 1 2 3 4 5 ; > , ) ! ~ 6 7 8 9 0 a < [ } b b     ",
"    . + @ c d e f g h i j k l ) ! m n o p q q r s t u b b v     ",
"  . + @ w x y z A B C D E F G H I J K L M s N O P Q R S v T U   ",
"  + @ # V W X Y Z `  ...+.@.#.$.%.&.*.=.-.;.>.Q ,.'.).!.T ~.~.  ",
"  @ # {.].^./.(._.C :.<.[.}.|.1.2.3.4.5.6.7.8.9.0.a.b.c.d.~.e.  ",
"  # # f.g.h.i.j.k.l.m.n.o.p.q.a.r.s.t.u.v.w.x.y.b.z.A.B.C.e.D.  ",
"  # % E.F.G. .H.I., ) J.K.L.M.a.N.O.P.Q.R.} b S.T.U.V.W.X.D.Y.  ",
"  % & Z.`. +.+++@+) ! #+$+%+M.a.&+*+=+-+;+b b >+,+'+)+!+~+Y.Y.  ",
"  & * {+]+^+/+(+_+:+<+[+}+%+M.a.&+|+1+2+3+4+5+6+7+8+9+0+a+Y.b+  ",
"  * * c+d+e+f+g+h+i+j+k+}+%+M.a.l+m+n+o+p+q+r+s+t+u+v+w+x+b+y+  ",
"  * = ; z+A+B+C+D+E+F+k+}+%+M.G+H+I+=.J+K+L+M+N+O+P+w+Q+b+y+y+  ",
"  = ; > R+S+T+U+V+W+F+k+}+%+X+Y+Z+`+ @.@+@@@#@$@%@&@*@=@y+-@;@  ",
"    > , ) >@,@'@V+W+F+k+}+)@!@} b ~@{@]@+@M.#@$@^@/@(@y+_@;@    ",
"    , ) ! ~ { :@<@[@}@|@1@[ } b b v T 2@3@4@5@6@7@8@y+_@;@9@    ",
"      ! ~ : ] ^ / ( _ < [ } b b v T ~.~.e.D.Y.Y.b+y+-@;@9@      ",
"      ~ { ] ^ / ( _ < [ } b b v T ~.~.e.D.Y.Y.b+y+-@;@9@0@      ",
"        ] ^ / ( _ < [ } b b v T ~.~.e.D.Y.Y.b+y+_@;@9@0@        ",
"          / ( _ < [ } b b v T ~.~.e.D.Y.Y.b+y+_@;@9@0@          ",
"            _ < [ } b b v T ~.~.e.D.Y.Y.b+y+-@;@9@0@            ",
"              [ } b b v T ~.~.e.D.Y.Y.b+y+-@;@9@0@              ",
"                  b v T ~.~.e.D.Y.Y.b+y+_@;@9@                  ",
"                      ~.~.e.D.Y.Y.b+y+-@;@                      ",
"                                                                "};
