<?xml version="1.0" encoding="UTF-8" standalone="no"?>
<!-- Generator: Adobe Illustrator 22.0.1, SVG Export Plug-In . SVG Version: 6.00 Build 0)  -->

<svg
   version="1.1"
   id="Layer_1"
   x="0px"
   y="0px"
   viewBox="0 0 100 100"
   xml:space="preserve"
   sodipodi:docname="btn_wooeen_off.svg"
   width="100"
   height="100"
   inkscape:export-filename="../../../../../../../../Google Drive/Meu Drive/Wooeen/logos/ios/btn_wooeen_off.pdf"
   inkscape:export-xdpi="92.903229"
   inkscape:export-ydpi="92.903229"
   inkscape:version="1.3.2 (091e20e, 2023-11-25)"
   xmlns:inkscape="http://www.inkscape.org/namespaces/inkscape"
   xmlns:sodipodi="http://sodipodi.sourceforge.net/DTD/sodipodi-0.dtd"
   xmlns="http://www.w3.org/2000/svg"
   xmlns:svg="http://www.w3.org/2000/svg"
   xmlns:rdf="http://www.w3.org/1999/02/22-rdf-syntax-ns#"
   xmlns:cc="http://creativecommons.org/ns#"
   xmlns:dc="http://purl.org/dc/elements/1.1/"><metadata
   id="metadata11"><rdf:RDF><cc:Work
       rdf:about=""><dc:format>image/svg+xml</dc:format><dc:type
         rdf:resource="http://purl.org/dc/dcmitype/StillImage" /></cc:Work></rdf:RDF></metadata><defs
   id="defs9" /><sodipodi:namedview
   pagecolor="#ffffff"
   bordercolor="#666666"
   borderopacity="1"
   objecttolerance="10"
   gridtolerance="10"
   guidetolerance="10"
   inkscape:pageopacity="0"
   inkscape:pageshadow="2"
   inkscape:window-width="1824"
   inkscape:window-height="901"
   id="namedview7"
   showgrid="false"
   inkscape:zoom="2.4445565"
   inkscape:cx="-64.224329"
   inkscape:cy="63.406184"
   inkscape:window-x="204"
   inkscape:window-y="106"
   inkscape:window-maximized="0"
   inkscape:current-layer="Layer_1"
   inkscape:showpageshadow="2"
   inkscape:pagecheckerboard="0"
   inkscape:deskcolor="#d1d1d1" />
<style
   type="text/css"
   id="style2">
	.st0{fill:#231F20;}
</style>
<path
   class="st0"
   d="m 76.829268,27.032519 c -6.097561,0 -11.788618,2.439025 -15.853658,6.504066 L 41.463415,51.016261 v 0 l -9.349594,8.130081 c -2.439024,2.439025 -5.691057,3.658537 -8.943089,3.658537 -6.910569,0 -12.601626,-5.691057 -12.601626,-12.601626 0,-6.910569 5.691057,-12.601628 12.601626,-12.601628 3.658536,0 6.504065,1.219512 9.349593,4.065043 l 5.284553,4.471544 7.317073,-6.91057 -5.691057,-5.284553 C 34.95935,29.471544 29.268293,27.032519 23.170732,27.032519 10.569106,27.032519 0,37.601625 0,50.203253 c 0,12.601626 10.162602,22.764228 22.764228,22.764228 6.097561,0 11.788618,-2.439025 15.853658,-6.504065 l 10.97561,-9.349594 v 0 L 67.479675,41.260164 c 2.439024,-2.439027 5.691057,-3.658539 8.943089,-3.658539 6.910569,0 12.601626,5.691059 12.601626,12.601628 0,6.910569 -5.691057,12.601626 -12.601626,12.601626 -3.658536,0 -6.504065,-1.219512 -9.349593,-4.065041 l -5.284553,-4.878048 -7.723577,6.910569 6.504065,5.691057 C 65.04065,70.93496 70.731707,72.967481 76.829268,72.967481 89.430894,72.967481 100,62.804879 100,50.203253 99.593496,37.601625 89.430894,27.032519 76.829268,27.032519 Z"
   id="path4"
   inkscape:connector-curvature="0"
   style="fill:#231f20;stroke-width:4.06504" />
</svg>
